<?xml version="1.0" standalone="no"?>
<!DOCTYPE svg PUBLIC "-//W3C//DTD SVG 20010904//EN"
 "http://www.w3.org/TR/2001/REC-SVG-20010904/DTD/svg10.dtd">
<svg version="1.0" xmlns="http://www.w3.org/2000/svg"
 width="700.000000pt" height="700.000000pt" viewBox="0 0 700.000000 700.000000"
 preserveAspectRatio="xMidYMid meet">
<metadata>
Created by potrace 1.11, written by Peter Selinger 2001-2013
</metadata>
<g transform="translate(0.000000,700.000000) scale(0.100000,-0.100000)"
fill="#000000" stroke="none">
<path d="M3235 6959 c-1384 -105 -2582 -1037 -3023 -2354 -127 -377 -177 -697
-176 -1115 1 -283 14 -425 65 -675 245 -1221 1136 -2226 2314 -2608 177 -58
222 -70 370 -101 607 -126 1214 -92 1800 100 1157 380 2033 1346 2299 2535
175 783 72 1617 -289 2324 -175 343 -370 611 -645 885 -350 351 -733 602
-1190 782 -470 186 -1010 266 -1525 227z m645 -225 c707 -82 1360 -391 1877
-888 811 -779 1160 -1917 928 -3026 -99 -474 -334 -969 -647 -1360 -379 -474
-908 -845 -1488 -1042 -350 -119 -667 -171 -1050 -171 -124 0 -272 5 -330 12
-651 74 -1222 311 -1725 714 -130 105 -369 344 -476 477 -261 325 -482 745
-594 1130 -89 309 -128 585 -128 920 0 261 15 412 63 650 231 1144 1064 2080
2178 2446 266 87 547 139 857 158 105 6 405 -5 535 -20z"/>
<path d="M1351 5033 c-37 -7 -68 -31 -80 -61 -8 -20 -11 -162 -9 -486 l3 -458
31 -27 c25 -23 44 -29 100 -34 130 -12 229 -61 317 -156 240 -258 105 -683
-244 -766 -35 -8 -81 -15 -101 -15 -27 0 -47 -8 -70 -29 l-33 -29 -3 -458 c-2
-324 1 -466 9 -486 26 -63 -154 -58 2229 -58 2386 0 2203 -5 2229 58 8 20 11
162 9 486 l-3 458 -33 29 c-23 21 -43 29 -70 29 -20 0 -66 7 -101 15 -291 69
-446 385 -321 653 73 156 255 272 426 272 23 0 44 9 66 29 l33 29 3 458 c2
324 -1 466 -9 486 -6 15 -23 35 -38 45 -25 17 -124 18 -2171 19 -1180 1 -2156
-1 -2169 -3z m3159 -373 c0 -182 9 -219 60 -245 44 -23 92 -13 124 26 26 30
26 32 26 205 l0 174 405 0 405 0 0 -323 0 -323 -71 -18 c-120 -31 -204 -80
-300 -175 -95 -95 -134 -157 -175 -276 -25 -71 -28 -94 -28 -205 1 -108 4
-136 27 -205 75 -223 255 -394 475 -451 l72 -18 0 -323 0 -323 -405 0 -405 0
0 136 0 136 -29 29 c-41 41 -98 41 -143 0 l-33 -29 -3 -136 -4 -136 -1519 0
-1519 0 0 323 0 323 72 18 c132 34 257 114 347 222 62 74 96 137 128 234 24
74 28 100 27 205 0 104 -4 131 -28 200 -41 119 -80 181 -175 276 -96 95 -180
144 -300 175 l-71 18 0 323 0 323 1520 0 1520 0 0 -160z"/>
<path d="M2520 3345 l0 -905 235 0 235 0 0 340 0 340 98 0 c160 0 223 -28 292
-132 22 -33 93 -169 159 -304 l120 -244 250 0 251 0 -146 293 c-80 160 -166
322 -190 359 -55 82 -130 151 -189 174 l-45 17 80 39 c147 72 228 183 252 346
31 214 -51 405 -209 490 -146 77 -270 92 -785 92 l-408 0 0 -905z m780 554
c112 -25 155 -86 155 -219 0 -100 -20 -152 -74 -187 -53 -36 -96 -43 -248 -43
l-143 0 0 230 0 230 133 0 c72 0 152 -5 177 -11z"/>
<path d="M4548 4161 l-33 -29 -3 -235 c-3 -264 2 -293 58 -322 44 -23 92 -13
124 26 l26 31 0 250 0 250 -29 29 c-41 41 -98 41 -143 0z"/>
<path d="M4548 3321 l-33 -29 -3 -235 c-3 -264 2 -293 58 -322 44 -23 92 -13
124 26 l26 31 0 250 0 250 -29 29 c-41 41 -98 41 -143 0z"/>
</g>
</svg>
